<svg height="512" viewBox="0 0 512 512" width="512" xmlns="http://www.w3.org/2000/svg"><g><g><path d="m144 144h-48a40 40 0 1 1 13.22-77.75 47.993 47.993 0 0 1 88.28 6.46" fill="#d8d7da"/><path d="m480 488h-112v-208l112 48z" fill="#ffda44"/><path d="m368 488h-224v-400l224-64z" fill="#898890"/><path d="m208 368h96v96h-96z" fill="#83d8f4"/><path d="m192 464h128v24h-128z" fill="#d8d7da"/><g fill="#83d8f4"><path d="m176 288h160v48h-160z"/><path d="m400 360h80v48h-80z"/><path d="m176 208h160v48h-160z"/><path d="m176 128h160v48h-160z"/></g><ellipse cx="72" cy="352" fill="#91cc04" rx="40" ry="56"/><path d="m40 432 32 16" fill="#d8d7da"/><path d="m368 232h72a32 32 0 1 0 -8.49-62.85 48.015 48.015 0 0 0 -63.51-38.41" fill="#d8d7da"/></g><g><path d="m496 480h-8v-152a8 8 0 0 0 -4.85-7.35l-107.15-45.93v-34.72h64a40 40 0 0 0 0-80c-.77 0-1.54.02-2.31.07a55.957 55.957 0 0 0 -61.69-39.49v-96.58a7.992 7.992 0 0 0 -10.2-7.69l-163.66 46.76a56 56 0 0 0 -96.73-6.14 48 48 0 1 0 -9.41 95.07h40v328h-56v-64.88c10.23-2.23 19.55-8.73 26.79-18.87 8.52-11.92 13.21-27.64 13.21-44.25s-4.69-32.33-13.21-44.25c-9.09-12.74-21.45-19.75-34.79-19.75s-25.7 7.01-34.79 19.75c-8.52 11.92-13.21 27.64-13.21 44.25s4.69 32.33 13.21 44.25c7.24 10.14 16.56 16.64 26.79 18.87v19.94l-20.42-10.22a8.005 8.005 0 0 0 -7.16 14.32l27.58 13.78v27.06h-48a8 8 0 0 0 0 16h480a8 8 0 0 0 0-16zm-120-343.19a39.406 39.406 0 0 1 8-.81 40.175 40.175 0 0 1 39.59 34.28 8 8 0 0 0 10.03 6.59 24 24 0 1 1 6.38 47.13h-64zm-304 231.19a8 8 0 0 0 -8 8v22.41c-13.62-5.49-24-24.52-24-46.41 0-26.02 14.65-48 32-48s32 21.98 32 48c0 21.89-10.38 40.92-24 46.41v-22.41a8 8 0 0 0 -8-8zm69.8-287.69a8 8 0 0 0 -5.8 7.69v48h-40a32 32 0 1 1 10.58-62.2 8 8 0 0 0 9.77-3.92 39.992 39.992 0 0 1 70.04-2.31zm170.2 399.69h-112v-8h112zm-96-24v-80h32v80zm48 0v-80h32v80zm96 24h-32v-16a8 8 0 0 0 -8-8h-8v-88a8 8 0 0 0 -8-8h-96a8 8 0 0 0 -8 8v88h-8a8 8 0 0 0 -8 8v16h-32v-385.97l208-59.42zm112-80h-64v-32h64zm0-48h-72a8 8 0 0 0 -8 8v48a8 8 0 0 0 8 8h72v64h-96v-187.87l96 41.15z"/><path d="m336 344a8 8 0 0 0 8-8v-48a8 8 0 0 0 -8-8h-160a8 8 0 0 0 -8 8v48a8 8 0 0 0 8 8zm-152-48h144v32h-144z"/><path d="m176 264h160a8 8 0 0 0 8-8v-48a8 8 0 0 0 -8-8h-160a8 8 0 0 0 -8 8v48a8 8 0 0 0 8 8zm8-48h144v32h-144z"/><path d="m176 184h160a8 8 0 0 0 8-8v-48a8 8 0 0 0 -8-8h-160a8 8 0 0 0 -8 8v48a8 8 0 0 0 8 8zm8-48h144v32h-144z"/></g></g></svg>